<svg width="107" height="109" viewBox="0 0 107 109" fill="none" xmlns="http://www.w3.org/2000/svg">
<path d="M22.4913 108.5H84.842C85.6733 108.5 86.4008 108.184 87.0243 107.551C87.6478 106.918 87.9595 106.18 87.9595 105.336V56.8203L104.69 51.125C105.106 51.0547 105.452 50.8789 105.729 50.5977C106.076 50.3164 106.353 49.9648 106.561 49.543C106.769 49.1914 106.873 48.8047 106.873 48.3828C106.873 47.9609 106.803 47.5391 106.665 47.1172L97.3121 18.8516C96.1344 15.2656 94.16 12.207 91.3888 9.67578C88.687 7.07422 85.5001 5.31641 81.8284 4.40234L66.8642 0.605469C66.7949 0.535156 66.6564 0.5 66.4486 0.5C66.31 0.5 66.2061 0.5 66.1368 0.5H41.1965C41.058 0.5 40.9194 0.535156 40.7809 0.605469C40.6423 0.605469 40.5384 0.605469 40.4691 0.605469L25.505 4.40234C21.8332 5.31641 18.6118 7.07422 15.8406 9.67578C13.1388 12.207 11.199 15.2656 10.0212 18.8516L0.66862 47.1172C0.530063 47.5391 0.460785 47.9609 0.460785 48.3828C0.460785 48.8047 0.564703 49.1914 0.772538 49.543C0.980374 49.9648 1.22285 50.3164 1.49996 50.5977C1.84635 50.8789 2.22739 51.0547 2.64306 51.125L19.3738 56.8203V105.336C19.3738 106.18 19.6856 106.918 20.3091 107.551C20.9326 108.184 21.66 108.5 22.4913 108.5ZM61.7723 6.82812C60.9409 8.23438 59.7978 9.64062 58.343 11.0469C56.9574 12.4531 55.3986 13.1562 53.6667 13.1562C51.9347 13.1562 50.3413 12.4531 48.8865 11.0469C47.5009 9.64062 46.3924 8.23438 45.5611 6.82812H61.7723ZM7.52719 46.168L15.9445 20.8555C16.7759 18.3242 18.1614 16.1445 20.1012 14.3164C22.1103 12.4883 24.3965 11.2227 26.9598 10.5195L38.9104 7.46094C40.0188 10.2734 41.8893 12.9805 44.5219 15.582C47.2238 18.1836 50.272 19.4844 53.6667 19.4844C56.992 19.4844 60.0057 18.1836 62.7075 15.582C65.4094 12.9805 67.3145 10.2734 68.423 7.46094L80.3735 10.5195C82.9368 11.2227 85.1884 12.4883 87.1282 14.3164C89.1373 16.1445 90.5575 18.3242 91.3888 20.8555L99.8061 46.168L87.9595 50.1758V28.9766C87.9595 28.1328 87.6478 27.3945 87.0243 26.7617C86.4008 26.1289 85.6733 25.8125 84.842 25.8125C84.0107 25.8125 83.2832 26.1289 82.6597 26.7617C82.0362 27.3945 81.7245 28.1328 81.7245 28.9766V102.172H25.6089C25.6089 101.609 25.6089 97.5312 25.6089 89.9375C25.6089 82.3438 25.6089 74.1172 25.6089 65.2578C25.6089 56.3281 25.6089 48.1367 25.6089 40.6836C25.6089 33.2305 25.6089 29.3281 25.6089 28.9766C25.6089 28.1328 25.2971 27.3945 24.6736 26.7617C24.0501 26.1289 23.3227 25.8125 22.4913 25.8125C21.66 25.8125 20.9326 26.1289 20.3091 26.7617C19.6856 27.3945 19.3738 28.1328 19.3738 28.9766V50.1758L7.52719 46.168ZM34.9615 70.3203H50.5491V86.1406C50.5491 86.8438 50.757 87.4766 51.1726 88.0391C51.5883 88.6016 52.1425 88.9883 52.8353 89.1992C53.5281 89.4102 54.1863 89.375 54.8098 89.0938C55.5025 88.8125 56.0221 88.3555 56.3685 87.7227L75.0737 56.082C75.3508 55.5898 75.4894 55.0625 75.4894 54.5C75.4894 53.9375 75.3508 53.4102 75.0737 52.918C74.7966 52.4258 74.4156 52.0391 73.9306 51.7578C73.4457 51.4766 72.9261 51.3359 72.3719 51.3359H56.7842V35.5156C56.7842 34.8125 56.5764 34.1797 56.1607 33.6172C55.745 33.0547 55.1908 32.668 54.498 32.457C53.8052 32.2461 53.1124 32.2812 52.4197 32.5625C51.7962 32.8438 51.3112 33.3008 50.9648 33.9336L32.2596 65.5742C31.9825 66.0664 31.8439 66.5938 31.8439 67.1562C31.8439 67.7188 31.9825 68.2461 32.2596 68.7383C32.5367 69.2305 32.9178 69.6172 33.4027 69.8984C33.8877 70.1797 34.4072 70.3203 34.9615 70.3203ZM50.5491 46.9062V54.5C50.5491 55.3438 50.8609 56.082 51.4844 56.7148C52.1079 57.3477 52.8353 57.6641 53.6667 57.6641H66.8642L56.7842 74.75V67.1562C56.7842 66.3125 56.4725 65.5742 55.8489 64.9414C55.2254 64.3086 54.498 63.9922 53.6667 63.9922H40.4691L50.5491 46.9062Z" fill="#2563EB"/>
</svg>
