<svg width="109" height="107" viewBox="0 0 109 107" fill="none" xmlns="http://www.w3.org/2000/svg">
<mask id="path-1-outside-1_16_235" maskUnits="userSpaceOnUse" x="-0.166718" y="0" width="109" height="107" fill="black">
<rect fill="white" x="-0.166718" width="109" height="107"/>
<path d="M62.3118 84.8476C62.3118 85.628 62.3118 86.2334 62.3118 86.8388C62.3293 87.3245 62.2063 87.8049 61.9575 88.2226C61.7087 88.6403 61.3447 88.9777 60.9089 89.1945C56.7384 91.5645 52.5689 93.9411 48.4004 96.3245C44.1398 98.7548 39.8908 101.202 35.6187 103.61C34.7488 104.098 33.8378 104.51 32.8962 104.84C31.9418 105.179 30.993 104.944 30.122 104.465C28.8656 103.776 27.6237 103.067 26.3846 102.361L17.4266 97.2656L7.905 91.8313C6.46757 91.0164 5.03013 90.2045 3.6157 89.381C3.06085 89.0596 2.43988 88.7784 2.19839 88.13C2.00221 87.6752 1.8874 87.1897 1.85916 86.6954C1.83903 76.676 1.85916 66.6538 1.83328 56.6344C1.83328 55.4179 2.35938 54.6259 3.39146 54.0521C5.61086 52.8155 7.81588 51.5473 10.0267 50.2934C12.2374 49.0395 14.3849 47.823 16.5612 46.5806C16.7624 46.443 16.9545 46.2926 17.1362 46.1301V45.212C17.1362 33.867 17.1304 22.5221 17.1189 11.1771C17.1189 9.3896 17.9038 8.02097 19.2463 6.92779C21.2875 5.26364 23.7196 4.42295 26.2064 3.69991C28.926 2.90513 31.7233 2.51778 34.5435 2.23373C36.5017 2.02782 38.4719 1.95784 40.4399 2.02427C44.479 2.17634 48.4895 2.5723 52.4108 3.67408C54.3815 4.2118 56.2809 4.98238 58.0685 5.96947C59.0069 6.49973 59.8368 7.20152 60.515 8.03819C61.1776 8.8451 61.5239 9.86473 61.4896 10.9074C61.4551 14.4854 61.4695 18.0633 61.4666 21.6441C61.4666 26.1182 61.4666 30.5913 61.4666 35.0635V36.128L61.6104 36.1854C62.2083 35.2098 62.8149 34.2085 63.4215 33.2014C66.2504 28.5188 69.0773 23.8324 71.9024 19.1421C71.9944 18.9901 72.095 18.8409 72.1899 18.6917C73.1501 17.2857 74.6565 17.257 75.611 18.6486C75.9962 19.2225 76.3354 19.7963 76.6862 20.3702C81.905 29.0008 87.12 37.6324 92.3312 46.265C96.2487 52.7552 100.161 59.2483 104.069 65.7442C104.716 66.8173 105.395 67.8675 106.03 68.9463C106.305 69.4046 106.53 69.8914 106.7 70.3981C106.881 70.9669 106.878 71.5786 106.689 72.1451C106.501 72.7117 106.137 73.204 105.65 73.5514C104.641 74.2257 103.575 74.8196 102.511 75.4107C97.7906 78.0408 93.0643 80.6633 88.3323 83.2781L76.8759 89.6363C76.0503 90.15 75.1077 90.4461 74.1362 90.4971C73.1972 90.5313 72.2662 90.3144 71.4395 89.8687L63.9131 85.7084C63.4445 85.4616 62.9731 85.2091 62.3118 84.8476ZM74.852 20.769V88.6723C75.381 88.4169 75.841 88.2189 76.2751 87.9808C78.345 86.8484 80.412 85.7084 82.4762 84.5607C84.5403 83.413 86.6112 82.2653 88.6887 81.1176C92.2191 79.1493 95.7484 77.1781 99.2769 75.2041C100.933 74.2773 102.592 73.3592 104.233 72.4123C105.188 71.8614 105.343 71.1929 104.785 70.2604C103.923 68.82 103.06 67.3854 102.198 65.9566C99.3689 61.2797 96.539 56.6029 93.7083 51.926C90.8449 47.2109 87.993 42.4996 85.1526 37.7921C82.2893 33.0483 79.424 28.3065 76.5568 23.5665C76.0393 22.6942 75.496 21.822 74.852 20.769ZM59.6928 14.5026C58.8304 15.0334 58.1347 15.5326 57.3728 15.92C55.0923 17.0344 52.6763 17.8484 50.1857 18.3416C47.7901 18.8903 45.3502 19.2245 42.895 19.3401C40.0776 19.4377 37.2488 19.518 34.4199 19.211C32.3629 19.0217 30.3178 18.7209 28.2936 18.31C25.0306 17.5899 21.8797 16.5885 19.1112 14.5227V44.9107C19.4476 44.7529 19.7034 44.6496 19.9421 44.5148C20.6579 44.1102 21.3622 43.6913 22.0752 43.281C24.4642 41.9124 26.8647 40.5667 29.2365 39.1722C31.0103 38.1307 32.7525 37.8926 34.5953 39.0087C36.1247 39.9355 37.6972 40.7876 39.2525 41.6656C41.6186 43.0027 43.9932 44.3254 46.3535 45.6825C48.5901 46.9536 50.8181 48.2448 53.0519 49.5216C53.1446 49.5521 53.2418 49.5666 53.3394 49.5646C53.4803 49.3724 53.6269 49.2117 53.7332 49.0281C55.4725 46.1588 57.1831 43.2666 58.9597 40.4204C59.4821 39.5736 59.7393 38.5906 59.6986 37.597C59.6698 30.335 59.6842 23.0701 59.6842 15.8052L59.6928 14.5026ZM59.6066 55.4724C59.453 55.3192 59.2877 55.1782 59.1121 55.0506C56.4289 53.5203 53.7543 52.0006 51.0884 50.4914C48.3208 48.9114 45.5552 47.3343 42.7915 45.76C39.8361 44.0786 36.8664 42.426 33.9283 40.7216C32.649 39.9785 31.4645 40.0129 30.191 40.7475C25.9764 43.1748 21.7331 45.5563 17.5071 47.9636C13.5263 50.2264 9.54942 52.496 5.57636 54.7723C5.25437 54.9588 4.95539 55.1826 4.55578 55.4494L32.1085 71.1326L59.6066 55.4724ZM60.5438 57.016L33.086 72.6505V102.852C34.0634 102.585 59.7158 88.0038 60.5438 87.2549V57.016ZM31.0304 72.6132C21.9027 67.4084 12.7923 62.2065 3.5927 56.9845V87.2176C3.82559 87.4406 4.07656 87.6441 4.34304 87.8259C13.1938 92.8661 22.057 97.9083 30.9327 102.952C31.1569 102.077 31.2288 74.4323 31.0304 72.6132ZM73.0035 88.5948V20.746L54.9522 50.609C55.2109 50.7754 55.3547 50.8759 55.507 50.9648C57.1227 51.883 58.7269 52.8241 60.3598 53.7135C61.6909 54.4423 62.3866 55.3806 62.3722 57.0361C62.2946 65.156 62.3377 73.276 62.3377 81.3988V82.601C63.1024 83.3269 71.727 88.1616 72.9948 88.5948H73.0035ZM39.356 3.73181C38.7572 3.82941 38.1651 3.82821 37.5592 3.86058C35.667 3.88593 33.7783 4.03064 31.9044 4.29384C29.3904 4.62163 26.9178 5.21211 24.5275 6.05555C22.7623 6.68391 21.1294 7.52746 19.7552 8.85592C18.9819 9.60479 18.7145 11.1886 19.5655 12.167C19.9343 12.6025 20.352 12.9943 20.8103 13.3348C23.6133 15.3433 26.8877 16.1007 30.1881 16.7492C31.6556 17.0336 33.1373 17.2396 34.6269 17.3661C36.3 17.5095 37.9819 17.5267 39.6608 17.5985C39.7329 17.598 39.8049 17.5932 39.8764 17.5841C40.5865 17.5296 41.2966 17.4608 42.0095 17.4263C42.7225 17.3919 43.3808 17.4694 44.0507 17.3804C45.8849 17.1365 47.719 16.8783 49.5359 16.5397C52.0082 16.1326 54.3966 15.3222 56.6052 14.141C57.6316 13.5672 58.6895 12.9934 59.3047 11.9231C59.713 11.2087 59.9544 10.4483 59.4887 9.69661C59.162 9.14377 58.7429 8.6508 58.2496 8.23903C56.4787 6.85319 54.4175 6.03259 52.2728 5.41571C48.0554 4.22211 43.7201 3.91257 39.356 3.73181Z"/>
</mask>
<path d="M62.3118 84.8476C62.3118 85.628 62.3118 86.2334 62.3118 86.8388C62.3293 87.3245 62.2063 87.8049 61.9575 88.2226C61.7087 88.6403 61.3447 88.9777 60.9089 89.1945C56.7384 91.5645 52.5689 93.9411 48.4004 96.3245C44.1398 98.7548 39.8908 101.202 35.6187 103.61C34.7488 104.098 33.8378 104.51 32.8962 104.84C31.9418 105.179 30.993 104.944 30.122 104.465C28.8656 103.776 27.6237 103.067 26.3846 102.361L17.4266 97.2656L7.905 91.8313C6.46757 91.0164 5.03013 90.2045 3.6157 89.381C3.06085 89.0596 2.43988 88.7784 2.19839 88.13C2.00221 87.6752 1.8874 87.1897 1.85916 86.6954C1.83903 76.676 1.85916 66.6538 1.83328 56.6344C1.83328 55.4179 2.35938 54.6259 3.39146 54.0521C5.61086 52.8155 7.81588 51.5473 10.0267 50.2934C12.2374 49.0395 14.3849 47.823 16.5612 46.5806C16.7624 46.443 16.9545 46.2926 17.1362 46.1301V45.212C17.1362 33.867 17.1304 22.5221 17.1189 11.1771C17.1189 9.3896 17.9038 8.02097 19.2463 6.92779C21.2875 5.26364 23.7196 4.42295 26.2064 3.69991C28.926 2.90513 31.7233 2.51778 34.5435 2.23373C36.5017 2.02782 38.4719 1.95784 40.4399 2.02427C44.479 2.17634 48.4895 2.5723 52.4108 3.67408C54.3815 4.2118 56.2809 4.98238 58.0685 5.96947C59.0069 6.49973 59.8368 7.20152 60.515 8.03819C61.1776 8.8451 61.5239 9.86473 61.4896 10.9074C61.4551 14.4854 61.4695 18.0633 61.4666 21.6441C61.4666 26.1182 61.4666 30.5913 61.4666 35.0635V36.128L61.6104 36.1854C62.2083 35.2098 62.8149 34.2085 63.4215 33.2014C66.2504 28.5188 69.0773 23.8324 71.9024 19.1421C71.9944 18.9901 72.095 18.8409 72.1899 18.6917C73.1501 17.2857 74.6565 17.257 75.611 18.6486C75.9962 19.2225 76.3354 19.7963 76.6862 20.3702C81.905 29.0008 87.12 37.6324 92.3312 46.265C96.2487 52.7552 100.161 59.2483 104.069 65.7442C104.716 66.8173 105.395 67.8675 106.03 68.9463C106.305 69.4046 106.53 69.8914 106.7 70.3981C106.881 70.9669 106.878 71.5786 106.689 72.1451C106.501 72.7117 106.137 73.204 105.65 73.5514C104.641 74.2257 103.575 74.8196 102.511 75.4107C97.7906 78.0408 93.0643 80.6633 88.3323 83.2781L76.8759 89.6363C76.0503 90.15 75.1077 90.4461 74.1362 90.4971C73.1972 90.5313 72.2662 90.3144 71.4395 89.8687L63.9131 85.7084C63.4445 85.4616 62.9731 85.2091 62.3118 84.8476ZM74.852 20.769V88.6723C75.381 88.4169 75.841 88.2189 76.2751 87.9808C78.345 86.8484 80.412 85.7084 82.4762 84.5607C84.5403 83.413 86.6112 82.2653 88.6887 81.1176C92.2191 79.1493 95.7484 77.1781 99.2769 75.2041C100.933 74.2773 102.592 73.3592 104.233 72.4123C105.188 71.8614 105.343 71.1929 104.785 70.2604C103.923 68.82 103.06 67.3854 102.198 65.9566C99.3689 61.2797 96.539 56.6029 93.7083 51.926C90.8449 47.2109 87.993 42.4996 85.1526 37.7921C82.2893 33.0483 79.424 28.3065 76.5568 23.5665C76.0393 22.6942 75.496 21.822 74.852 20.769ZM59.6928 14.5026C58.8304 15.0334 58.1347 15.5326 57.3728 15.92C55.0923 17.0344 52.6763 17.8484 50.1857 18.3416C47.7901 18.8903 45.3502 19.2245 42.895 19.3401C40.0776 19.4377 37.2488 19.518 34.4199 19.211C32.3629 19.0217 30.3178 18.7209 28.2936 18.31C25.0306 17.5899 21.8797 16.5885 19.1112 14.5227V44.9107C19.4476 44.7529 19.7034 44.6496 19.9421 44.5148C20.6579 44.1102 21.3622 43.6913 22.0752 43.281C24.4642 41.9124 26.8647 40.5667 29.2365 39.1722C31.0103 38.1307 32.7525 37.8926 34.5953 39.0087C36.1247 39.9355 37.6972 40.7876 39.2525 41.6656C41.6186 43.0027 43.9932 44.3254 46.3535 45.6825C48.5901 46.9536 50.8181 48.2448 53.0519 49.5216C53.1446 49.5521 53.2418 49.5666 53.3394 49.5646C53.4803 49.3724 53.6269 49.2117 53.7332 49.0281C55.4725 46.1588 57.1831 43.2666 58.9597 40.4204C59.4821 39.5736 59.7393 38.5906 59.6986 37.597C59.6698 30.335 59.6842 23.0701 59.6842 15.8052L59.6928 14.5026ZM59.6066 55.4724C59.453 55.3192 59.2877 55.1782 59.1121 55.0506C56.4289 53.5203 53.7543 52.0006 51.0884 50.4914C48.3208 48.9114 45.5552 47.3343 42.7915 45.76C39.8361 44.0786 36.8664 42.426 33.9283 40.7216C32.649 39.9785 31.4645 40.0129 30.191 40.7475C25.9764 43.1748 21.7331 45.5563 17.5071 47.9636C13.5263 50.2264 9.54942 52.496 5.57636 54.7723C5.25437 54.9588 4.95539 55.1826 4.55578 55.4494L32.1085 71.1326L59.6066 55.4724ZM60.5438 57.016L33.086 72.6505V102.852C34.0634 102.585 59.7158 88.0038 60.5438 87.2549V57.016ZM31.0304 72.6132C21.9027 67.4084 12.7923 62.2065 3.5927 56.9845V87.2176C3.82559 87.4406 4.07656 87.6441 4.34304 87.8259C13.1938 92.8661 22.057 97.9083 30.9327 102.952C31.1569 102.077 31.2288 74.4323 31.0304 72.6132ZM73.0035 88.5948V20.746L54.9522 50.609C55.2109 50.7754 55.3547 50.8759 55.507 50.9648C57.1227 51.883 58.7269 52.8241 60.3598 53.7135C61.6909 54.4423 62.3866 55.3806 62.3722 57.0361C62.2946 65.156 62.3377 73.276 62.3377 81.3988V82.601C63.1024 83.3269 71.727 88.1616 72.9948 88.5948H73.0035ZM39.356 3.73181C38.7572 3.82941 38.1651 3.82821 37.5592 3.86058C35.667 3.88593 33.7783 4.03064 31.9044 4.29384C29.3904 4.62163 26.9178 5.21211 24.5275 6.05555C22.7623 6.68391 21.1294 7.52746 19.7552 8.85592C18.9819 9.60479 18.7145 11.1886 19.5655 12.167C19.9343 12.6025 20.352 12.9943 20.8103 13.3348C23.6133 15.3433 26.8877 16.1007 30.1881 16.7492C31.6556 17.0336 33.1373 17.2396 34.6269 17.3661C36.3 17.5095 37.9819 17.5267 39.6608 17.5985C39.7329 17.598 39.8049 17.5932 39.8764 17.5841C40.5865 17.5296 41.2966 17.4608 42.0095 17.4263C42.7225 17.3919 43.3808 17.4694 44.0507 17.3804C45.8849 17.1365 47.719 16.8783 49.5359 16.5397C52.0082 16.1326 54.3966 15.3222 56.6052 14.141C57.6316 13.5672 58.6895 12.9934 59.3047 11.9231C59.713 11.2087 59.9544 10.4483 59.4887 9.69661C59.162 9.14377 58.7429 8.6508 58.2496 8.23903C56.4787 6.85319 54.4175 6.03259 52.2728 5.41571C48.0554 4.22211 43.7201 3.91257 39.356 3.73181Z" fill="#E5E7EB"/>
<path d="M62.3118 84.8476C62.3118 85.628 62.3118 86.2334 62.3118 86.8388C62.3293 87.3245 62.2063 87.8049 61.9575 88.2226C61.7087 88.6403 61.3447 88.9777 60.9089 89.1945C56.7384 91.5645 52.5689 93.9411 48.4004 96.3245C44.1398 98.7548 39.8908 101.202 35.6187 103.61C34.7488 104.098 33.8378 104.51 32.8962 104.84C31.9418 105.179 30.993 104.944 30.122 104.465C28.8656 103.776 27.6237 103.067 26.3846 102.361L17.4266 97.2656L7.905 91.8313C6.46757 91.0164 5.03013 90.2045 3.6157 89.381C3.06085 89.0596 2.43988 88.7784 2.19839 88.13C2.00221 87.6752 1.8874 87.1897 1.85916 86.6954C1.83903 76.676 1.85916 66.6538 1.83328 56.6344C1.83328 55.4179 2.35938 54.6259 3.39146 54.0521C5.61086 52.8155 7.81588 51.5473 10.0267 50.2934C12.2374 49.0395 14.3849 47.823 16.5612 46.5806C16.7624 46.443 16.9545 46.2926 17.1362 46.1301V45.212C17.1362 33.867 17.1304 22.5221 17.1189 11.1771C17.1189 9.3896 17.9038 8.02097 19.2463 6.92779C21.2875 5.26364 23.7196 4.42295 26.2064 3.69991C28.926 2.90513 31.7233 2.51778 34.5435 2.23373C36.5017 2.02782 38.4719 1.95784 40.4399 2.02427C44.479 2.17634 48.4895 2.5723 52.4108 3.67408C54.3815 4.2118 56.2809 4.98238 58.0685 5.96947C59.0069 6.49973 59.8368 7.20152 60.515 8.03819C61.1776 8.8451 61.5239 9.86473 61.4896 10.9074C61.4551 14.4854 61.4695 18.0633 61.4666 21.6441C61.4666 26.1182 61.4666 30.5913 61.4666 35.0635V36.128L61.6104 36.1854C62.2083 35.2098 62.8149 34.2085 63.4215 33.2014C66.2504 28.5188 69.0773 23.8324 71.9024 19.1421C71.9944 18.9901 72.095 18.8409 72.1899 18.6917C73.1501 17.2857 74.6565 17.257 75.611 18.6486C75.9962 19.2225 76.3354 19.7963 76.6862 20.3702C81.905 29.0008 87.12 37.6324 92.3312 46.265C96.2487 52.7552 100.161 59.2483 104.069 65.7442C104.716 66.8173 105.395 67.8675 106.03 68.9463C106.305 69.4046 106.53 69.8914 106.7 70.3981C106.881 70.9669 106.878 71.5786 106.689 72.1451C106.501 72.7117 106.137 73.204 105.65 73.5514C104.641 74.2257 103.575 74.8196 102.511 75.4107C97.7906 78.0408 93.0643 80.6633 88.3323 83.2781L76.8759 89.6363C76.0503 90.15 75.1077 90.4461 74.1362 90.4971C73.1972 90.5313 72.2662 90.3144 71.4395 89.8687L63.9131 85.7084C63.4445 85.4616 62.9731 85.2091 62.3118 84.8476ZM74.852 20.769V88.6723C75.381 88.4169 75.841 88.2189 76.2751 87.9808C78.345 86.8484 80.412 85.7084 82.4762 84.5607C84.5403 83.413 86.6112 82.2653 88.6887 81.1176C92.2191 79.1493 95.7484 77.1781 99.2769 75.2041C100.933 74.2773 102.592 73.3592 104.233 72.4123C105.188 71.8614 105.343 71.1929 104.785 70.2604C103.923 68.82 103.06 67.3854 102.198 65.9566C99.3689 61.2797 96.539 56.6029 93.7083 51.926C90.8449 47.2109 87.993 42.4996 85.1526 37.7921C82.2893 33.0483 79.424 28.3065 76.5568 23.5665C76.0393 22.6942 75.496 21.822 74.852 20.769ZM59.6928 14.5026C58.8304 15.0334 58.1347 15.5326 57.3728 15.92C55.0923 17.0344 52.6763 17.8484 50.1857 18.3416C47.7901 18.8903 45.3502 19.2245 42.895 19.3401C40.0776 19.4377 37.2488 19.518 34.4199 19.211C32.3629 19.0217 30.3178 18.7209 28.2936 18.31C25.0306 17.5899 21.8797 16.5885 19.1112 14.5227V44.9107C19.4476 44.7529 19.7034 44.6496 19.9421 44.5148C20.6579 44.1102 21.3622 43.6913 22.0752 43.281C24.4642 41.9124 26.8647 40.5667 29.2365 39.1722C31.0103 38.1307 32.7525 37.8926 34.5953 39.0087C36.1247 39.9355 37.6972 40.7876 39.2525 41.6656C41.6186 43.0027 43.9932 44.3254 46.3535 45.6825C48.5901 46.9536 50.8181 48.2448 53.0519 49.5216C53.1446 49.5521 53.2418 49.5666 53.3394 49.5646C53.4803 49.3724 53.6269 49.2117 53.7332 49.0281C55.4725 46.1588 57.1831 43.2666 58.9597 40.4204C59.4821 39.5736 59.7393 38.5906 59.6986 37.597C59.6698 30.335 59.6842 23.0701 59.6842 15.8052L59.6928 14.5026ZM59.6066 55.4724C59.453 55.3192 59.2877 55.1782 59.1121 55.0506C56.4289 53.5203 53.7543 52.0006 51.0884 50.4914C48.3208 48.9114 45.5552 47.3343 42.7915 45.76C39.8361 44.0786 36.8664 42.426 33.9283 40.7216C32.649 39.9785 31.4645 40.0129 30.191 40.7475C25.9764 43.1748 21.7331 45.5563 17.5071 47.9636C13.5263 50.2264 9.54942 52.496 5.57636 54.7723C5.25437 54.9588 4.95539 55.1826 4.55578 55.4494L32.1085 71.1326L59.6066 55.4724ZM60.5438 57.016L33.086 72.6505V102.852C34.0634 102.585 59.7158 88.0038 60.5438 87.2549V57.016ZM31.0304 72.6132C21.9027 67.4084 12.7923 62.2065 3.5927 56.9845V87.2176C3.82559 87.4406 4.07656 87.6441 4.34304 87.8259C13.1938 92.8661 22.057 97.9083 30.9327 102.952C31.1569 102.077 31.2288 74.4323 31.0304 72.6132ZM73.0035 88.5948V20.746L54.9522 50.609C55.2109 50.7754 55.3547 50.8759 55.507 50.9648C57.1227 51.883 58.7269 52.8241 60.3598 53.7135C61.6909 54.4423 62.3866 55.3806 62.3722 57.0361C62.2946 65.156 62.3377 73.276 62.3377 81.3988V82.601C63.1024 83.3269 71.727 88.1616 72.9948 88.5948H73.0035ZM39.356 3.73181C38.7572 3.82941 38.1651 3.82821 37.5592 3.86058C35.667 3.88593 33.7783 4.03064 31.9044 4.29384C29.3904 4.62163 26.9178 5.21211 24.5275 6.05555C22.7623 6.68391 21.1294 7.52746 19.7552 8.85592C18.9819 9.60479 18.7145 11.1886 19.5655 12.167C19.9343 12.6025 20.352 12.9943 20.8103 13.3348C23.6133 15.3433 26.8877 16.1007 30.1881 16.7492C31.6556 17.0336 33.1373 17.2396 34.6269 17.3661C36.3 17.5095 37.9819 17.5267 39.6608 17.5985C39.7329 17.598 39.8049 17.5932 39.8764 17.5841C40.5865 17.5296 41.2966 17.4608 42.0095 17.4263C42.7225 17.3919 43.3808 17.4694 44.0507 17.3804C45.8849 17.1365 47.719 16.8783 49.5359 16.5397C52.0082 16.1326 54.3966 15.3222 56.6052 14.141C57.6316 13.5672 58.6895 12.9934 59.3047 11.9231C59.713 11.2087 59.9544 10.4483 59.4887 9.69661C59.162 9.14377 58.7429 8.6508 58.2496 8.23903C56.4787 6.85319 54.4175 6.03259 52.2728 5.41571C48.0554 4.22211 43.7201 3.91257 39.356 3.73181Z" stroke="#E5E7EB" stroke-width="2.6" mask="url(#path-1-outside-1_16_235)"/>
</svg>
