<svg width="98" height="32" viewBox="0 0 98 32" fill="none" xmlns="http://www.w3.org/2000/svg">
<g clip-path="url(#clip0_16_191)">
<path d="M21.794 9.54462C19.5614 7.59474 16.4548 6.62268 12.4743 6.62845H11.9292C8.01786 6.62845 5.13341 7.49378 3.27583 9.22445C2.37615 10.0668 1.66678 11.0916 1.1952 12.2302C0.723614 13.3689 0.500702 14.5951 0.541382 15.8269V16.4846C0.501041 17.7688 0.741031 19.0465 1.24465 20.2286C1.74827 21.4106 2.50342 22.4688 3.45755 23.3294C5.3959 25.1062 8.32361 25.9946 12.2407 25.9946H12.656C13.9417 26.0016 15.2242 25.8681 16.4808 25.5965C17.474 25.4137 18.4376 25.0963 19.3451 24.6533C19.9237 24.3501 20.4765 23.9999 20.9978 23.6063C21.3246 23.3588 21.6157 23.0677 21.8632 22.7409V25.5187H29.5214V0H21.794V9.51866V9.54462ZM21.794 16.3461C21.7747 17.0125 21.5957 17.6645 21.2719 18.2473C20.9481 18.8301 20.4891 19.3266 19.9335 19.695C18.433 20.7144 16.6393 21.213 14.828 21.1141H14.655C12.9666 21.2433 11.2908 20.7371 9.9562 19.695C9.47254 19.2809 9.08383 18.7674 8.81653 18.1895C8.54924 17.6116 8.40964 16.9828 8.40726 16.3461V16.2077C8.38764 15.5732 8.50327 14.9418 8.74646 14.3555C8.98965 13.7691 9.35484 13.2413 9.81775 12.8069C10.7581 11.9127 12.3474 11.4657 14.5857 11.4657H14.7501C16.5733 11.3711 18.3785 11.8657 19.8989 12.8761C20.4627 13.2346 20.9301 13.7257 21.2605 14.3064C21.5908 14.8871 21.774 15.5399 21.794 16.2077V16.3461Z" fill="black"/>
<path d="M47.7626 6.6631H47.3818C46.0629 6.64661 44.7549 6.90292 43.5398 7.41594C42.6366 7.75944 41.8016 8.26045 41.0736 8.89566C40.6226 9.33268 40.2168 9.81392 39.8621 10.3321V7.06981H32.2385V25.5187H39.9313V16C39.8944 14.8467 40.2755 13.7189 41.0043 12.8243C41.361 12.3979 41.8113 12.0598 42.3201 11.8361C42.8289 11.6125 43.3826 11.5094 43.9378 11.5349C44.498 11.4886 45.0611 11.5768 45.5804 11.792C46.0997 12.0072 46.56 12.3433 46.9232 12.7723C47.6066 13.7058 47.9515 14.8443 47.901 16H55.3256V14.9011C55.4377 12.7433 54.7816 10.6156 53.4738 8.89566C52.2219 7.40729 50.3182 6.6631 47.7626 6.6631Z" fill="black"/>
<path d="M96.8702 12.2964C96.4708 11.2015 95.8424 10.2043 95.0271 9.37157C94.0542 8.42632 92.8664 7.73144 91.5657 7.34669C89.8283 6.83105 88.0212 6.58874 86.2093 6.62847H85.5949C81.6836 6.62847 78.5425 7.65821 76.1715 9.7177V7.06979H68.5133V32H76.2061V22.9227C77.1543 23.7912 78.2623 24.4671 79.4684 24.9129C81.3673 25.6745 83.4027 26.0368 85.4478 25.9773H86.0016C87.8263 26.0149 89.6448 25.7518 91.384 25.1985C92.7324 24.7895 93.9596 24.0556 94.9578 23.0611C95.7869 22.2027 96.4318 21.1838 96.8529 20.0671C97.264 18.9358 97.4691 17.7401 97.4586 16.5365V15.8789C97.4762 14.6593 97.277 13.4463 96.8702 12.2964ZM89.5928 16.3115C89.6002 16.9495 89.4721 17.5817 89.217 18.1664C88.9619 18.7512 88.5856 19.2751 88.113 19.7036C87.115 20.644 85.494 21.1141 83.2499 21.1141H83.0768C81.2704 21.2316 79.479 20.7211 78.006 19.669C77.4622 19.2892 77.0158 18.7863 76.703 18.2014C76.3903 17.6165 76.22 16.966 76.2061 16.3029V16.1731C76.21 15.5155 76.3688 14.8682 76.6695 14.2834C76.9701 13.6986 77.4043 13.1928 77.9367 12.8069C79.0905 11.8666 80.7981 11.3964 83.0595 11.3964H83.2326C85.5055 11.3964 87.1323 11.8493 88.113 12.755C88.589 13.1855 88.9661 13.7139 89.2185 14.3039C89.4709 14.8939 89.5927 15.5316 89.5755 16.1731V16.3115H89.5928Z" fill="black"/>
<path d="M59.9465 9.41493C58.6319 11.1509 57.9785 13.2983 58.1033 15.4723V26.1159H65.7961V7.18237H65.6577C63.0905 7.18237 61.1868 7.92656 59.9465 9.41493Z" fill="black"/>
<path d="M62.8453 6.19578C62.8665 6.19696 62.8877 6.1938 62.9076 6.1865C62.9275 6.17921 62.9457 6.16792 62.9611 6.15334C62.9765 6.13875 62.9888 6.12118 62.9971 6.1017C63.0055 6.08221 63.0098 6.06122 63.0097 6.04002C63.011 6.0181 63.0076 5.99616 62.9998 5.97565C62.992 5.95513 62.9799 5.9365 62.9644 5.92097C62.9489 5.90545 62.9302 5.89338 62.9097 5.88556C62.8892 5.87775 62.8672 5.87435 62.8453 5.87561C61.3275 5.87791 59.8709 5.27776 58.7952 4.20695C57.7195 3.13614 57.1128 1.68221 57.1082 0.164413C57.1082 0.120808 57.0909 0.078989 57.06 0.0481555C57.0292 0.017322 56.9874 0 56.9438 0C56.9024 0.00411667 56.8639 0.0229989 56.8353 0.053191C56.8066 0.0833832 56.7899 0.122866 56.788 0.164413C56.7834 1.68221 56.1767 3.13614 55.101 4.20695C54.0253 5.27776 52.5686 5.87791 51.0508 5.87561C51.0296 5.87558 51.0087 5.87987 50.9892 5.88824C50.9697 5.8966 50.9521 5.90885 50.9375 5.92424C50.9229 5.93964 50.9117 5.95785 50.9044 5.97775C50.8971 5.99766 50.8939 6.01885 50.8951 6.04002C50.8951 6.08133 50.9115 6.12095 50.9407 6.15016C50.9699 6.17937 51.0095 6.19578 51.0508 6.19578C52.5686 6.19348 54.0253 6.79363 55.101 7.86444C56.1767 8.93525 56.7834 10.3892 56.788 11.907C56.788 11.9506 56.8053 11.9924 56.8362 12.0232C56.867 12.0541 56.9088 12.0714 56.9524 12.0714C56.9743 12.0726 56.9963 12.0693 57.0168 12.0614C57.0373 12.0536 57.0559 12.0415 57.0715 12.026C57.087 12.0105 57.0991 11.9919 57.1069 11.9713C57.1147 11.9508 57.1181 11.9289 57.1168 11.907C57.1237 10.3914 57.73 8.94009 58.8033 7.87002C59.8766 6.79995 61.3297 6.19805 62.8453 6.19578Z" fill="#FFB700"/>
</g>
<defs>
<clipPath id="clip0_16_191">
<rect width="96.9173" height="32" fill="white" transform="translate(0.541382)"/>
</clipPath>
</defs>
</svg>
