<svg width="108" height="109" viewBox="0 0 108 109" fill="none" xmlns="http://www.w3.org/2000/svg">
<g clip-path="url(#clip0_16_224)">
<path d="M59.626 41L49.3101 59.0549L43.875 49.9993L30.375 72.4989H41.6271H57.375H77.625L59.626 41ZM44.198 68H38.3248L43.875 58.7451L46.749 63.534L44.198 68ZM49.3793 68L59.626 50.0686L69.8698 68H49.3793Z" fill="#E5E7EB"/>
<path d="M87.7519 18.4989H83.2532V16C83.2532 14.8954 82.3578 14 81.2532 14H78.7543V2.75119C78.7543 1.50789 77.7464 0.5 76.5031 0.5C75.2598 0.5 74.2519 1.50789 74.2519 2.75119V14H71.7533C70.6487 14 69.7533 14.8954 69.7533 16V18.4989H38.2543V16C38.2543 14.8954 37.3589 14 36.2543 14H33.7519V2.74934C33.7519 1.50707 32.7449 0.5 31.5026 0.5C30.2603 0.5 29.2533 1.50707 29.2533 2.74934V14H26.7543C25.6497 14 24.7543 14.8954 24.7543 16V18.4989H20.252C17.7674 18.4989 15.7532 20.5148 15.7532 22.9994V103.998C15.7532 106.483 17.7674 108.5 20.252 108.5H87.7519C90.2384 108.5 92.2543 106.484 92.2543 103.998V22.9994C92.2543 20.5139 90.2375 18.4989 87.7519 18.4989ZM74.2519 18.4989H78.7543V22.9994H74.2519V18.4989ZM29.2533 18.4989H33.7519V22.9994H29.2533V18.4989ZM87.7519 103.998H20.252V22.9994H24.7543V25.5C24.7543 26.6046 25.6497 27.5 26.7543 27.5H36.2543C37.3589 27.5 38.2543 26.6046 38.2543 25.5V22.9994H69.7533V25.5C69.7533 26.6046 70.6487 27.5 71.7533 27.5H81.2532C82.3578 27.5 83.2532 26.6046 83.2532 25.5V22.9994H87.7519V103.998Z" fill="#E5E7EB"/>
<path d="M63.0032 90.4978H45.0043C43.7616 90.4978 42.7532 91.5061 42.7532 92.7489C42.7532 93.9916 43.7616 94.9999 45.0043 94.9999H63.0032C64.2457 94.9999 65.2543 93.9916 65.2543 92.7489C65.2543 91.5061 64.2457 90.4978 63.0032 90.4978Z" fill="#E5E7EB"/>
<path d="M72.0023 81.5H36.001C34.7585 81.5 33.75 82.5086 33.75 83.7479C33.75 84.9936 34.7585 85.9989 36.001 85.9989H72.0023C73.2448 85.9989 74.25 84.9936 74.25 83.7479C74.25 82.5086 73.2448 81.5 72.0023 81.5Z" fill="#E5E7EB"/>
</g>
<defs>
<clipPath id="clip0_16_224">
<rect width="108" height="108" fill="white" transform="translate(-2.28882e-05 0.5)"/>
</clipPath>
</defs>
</svg>
